# xmcd
# 
# Track frame offsets:
#     150
#     21719
#     40658
#     62025
#     88935
#     117062
#     143937
#     165000
# 
# Disc length: 2529
# 
# Revision: 0
# Processed by: cddbd v1.5.2PL0 Copyright (c) Steve Scherf et al.
# Submitted via: fre:ac v1.0.17
# 
DISCID=6409df08
DTITLE=KIRINJI - 時間がない
DYEAR=2018
DGENRE=Pop
TTITLE0=時間がない
TTITLE1=ONNA DARAKE! (from KIRINJI LIVE 2017 at EX TEATHER ROPPONGI)
TTITLE2=進水式 (from KIRINJI LIVE 2017 at EX TEATHER ROPPONGI)
TTITLE3=冬来たりなば (from KIRINJI LIVE 2017 at EX TEATHER ROPPONGI)
TTITLE4=日々是観光 (from KIRINJI LIVE 2017 at EX TEATHER ROPPONGI)
TTITLE5=嫉妬 (from KIRINJI LIVE 2017 at EX TEATHER ROPPONGI)
TTITLE6=Mr. BOOGIEMAN feat. negicco (from KIRINJI LIVE 2017 at EX TEATHER ROPPONGI)
TTITLE7=うちゅうひこうしのうた (from KIRINJI LIVE 2017 at EX TEATHER ROPPONGI)
EXTD=
EXTT0=
EXTT1=
EXTT2=
EXTT3=
EXTT4=
EXTT5=
EXTT6=
EXTT7=
PLAYORDER=
